  0
SECTION
  2
HEADER
  9
$ACADVER
  1
AC1015
  9
$ACADMAINTVER
 70
     6
  9
$DWGCODEPAGE
  3
ANSI_932
  9
$INSBASE
 10
0.0
 20
0.0
 30
0.0
  9
$EXTMIN
 10
1.000000000000000E+20
 20
1.000000000000000E+20
 30
1.000000000000000E+20
  9
$EXTMAX
 10
-1.000000000000000E+20
 20
-1.000000000000000E+20
 30
-1.000000000000000E+20
  9
$LIMMIN
 10
0.0
 20
0.0
  9
$LIMMAX
 10
12.0
 20
9.0
  9
$ORTHOMODE
 70
     0
  9
$REGENMODE
 70
     1
  9
$FILLMODE
 70
     1
  9
$QTEXTMODE
 70
     0
  9
$MIRRTEXT
 70
     1
  9
$LTSCALE
 40
1.0
  9
$ATTMODE
 70
     1
  9
$TEXTSIZE
 40
0.2
  9
$TRACEWID
 40
0.05
  9
$TEXTSTYLE
  7
Standard
  9
$CLAYER
  8
0
  9
$CELTYPE
  6
ByLayer
  9
$CECOLOR
 62
   256
  9
$CELTSCALE
 40
1.0
  9
$DISPSILH
 70
     0
  9
$DIMSCALE
 40
1.0
  9
$DIMASZ
 40
0.18
  9
$DIMEXO
 40
0.0625
  9
$DIMDLI
 40
0.38
  9
$DIMRND
 40
0.0
  9
$DIMDLE
 40
0.0
  9
$DIMEXE
 40
0.18
  9
$DIMTP
 40
0.0
  9
$DIMTM
 40
0.0
  9
$DIMTXT
 40
0.18
  9
$DIMCEN
 40
0.09
  9
$DIMTSZ
 40
0.0
  9
$DIMTOL
 70
     0
  9
$DIMLIM
 70
     0
  9
$DIMTIH
 70
     1
  9
$DIMTOH
 70
     1
  9
$DIMSE1
 70
     0
  9
$DIMSE2
 70
     0
  9
$DIMTAD
 70
     0
  9
$DIMZIN
 70
     0
  9
$DIMBLK
  1

  9
$DIMASO
 70
     1
  9
$DIMSHO
 70
     1
  9
$DIMPOST
  1

  9
$DIMAPOST
  1

  9
$DIMALT
 70
     0
  9
$DIMALTD
 70
     2
  9
$DIMALTF
 40
25.4
  9
$DIMLFAC
 40
1.0
  9
$DIMTOFL
 70
     0
  9
$DIMTVP
 40
0.0
  9
$DIMTIX
 70
     0
  9
$DIMSOXD
 70
     0
  9
$DIMSAH
 70
     0
  9
$DIMBLK1
  1

  9
$DIMBLK2
  1

  9
$DIMSTYLE
  2
Standard
  9
$DIMCLRD
 70
     0
  9
$DIMCLRE
 70
     0
  9
$DIMCLRT
 70
     0
  9
$DIMTFAC
 40
1.0
  9
$DIMGAP
 40
0.09
  9
$DIMJUST
 70
     0
  9
$DIMSD1
 70
     0
  9
$DIMSD2
 70
     0
  9
$DIMTOLJ
 70
     1
  9
$DIMTZIN
 70
     0
  9
$DIMALTZ
 70
     0
  9
$DIMALTTZ
 70
     0
  9
$DIMUPT
 70
     0
  9
$DIMDEC
 70
     4
  9
$DIMTDEC
 70
     4
  9
$DIMALTU
 70
     2
  9
$DIMALTTD
 70
     2
  9
$DIMTXSTY
  7
Standard
  9
$DIMAUNIT
 70
     0
  9
$DIMADEC
 70
     0
  9
$DIMALTRND
 40
0.0
  9
$DIMAZIN
 70
     0
  9
$DIMDSEP
 70
    46
  9
$DIMATFIT
 70
     3
  9
$DIMFRAC
 70
     0
  9
$DIMLDRBLK
  1

  9
$DIMLUNIT
 70
     2
  9
$DIMLWD
 70
    -2
  9
$DIMLWE
 70
    -2
  9
$DIMTMOVE
 70
     0
  9
$LUNITS
 70
     2
  9
$LUPREC
 70
     4
  9
$SKETCHINC
 40
0.1
  9
$FILLETRAD
 40
0.5
  9
$AUNITS
 70
     0
  9
$AUPREC
 70
     0
  9
$MENU
  1
.
  9
$ELEVATION
 40
0.0
  9
$PELEVATION
 40
0.0
  9
$THICKNESS
 40
0.0
  9
$LIMCHECK
 70
     0
  9
$CHAMFERA
 40
0.5
  9
$CHAMFERB
 40
0.5
  9
$CHAMFERC
 40
1.0
  9
$CHAMFERD
 40
0.0
  9
$SKPOLY
 70
     0
  9
$TDCREATE
 40
2458803.632037037
  9
$TDUCREATE
 40
2458803.590370371
  9
$TDUPDATE
 40
2458803.632037049
  9
$TDUUPDATE
 40
2458803.590370382
  9
$TDINDWG
 40
0.0000000116
  9
$TDUSRTIMER
 40
0.0000000116
  9
$USRTIMER
 70
     1
  9
$ANGBASE
 50
0.0
  9
$ANGDIR
 70
     0
  9
$PDMODE
 70
     0
  9
$PDSIZE
 40
0.0
  9
$PLINEWID
 40
0.0
  9
$SPLFRAME
 70
     0
  9
$SPLINETYPE
 70
     6
  9
$SPLINESEGS
 70
     8
  9
$HANDSEED
  5
EE
  9
$SURFTAB1
 70
     6
  9
$SURFTAB2
 70
     6
  9
$SURFTYPE
 70
     6
  9
$SURFU
 70
     6
  9
$SURFV
 70
     6
  9
$UCSBASE
  2

  9
$UCSNAME
  2

  9
$UCSORG
 10
0.0
 20
0.0
 30
0.0
  9
$UCSXDIR
 10
1.0
 20
0.0
 30
0.0
  9
$UCSYDIR
 10
0.0
 20
1.0
 30
0.0
  9
$UCSORTHOREF
  2

  9
$UCSORTHOVIEW
 70
     0
  9
$UCSORGTOP
 10
0.0
 20
0.0
 30
0.0
  9
$UCSORGBOTTOM
 10
0.0
 20
0.0
 30
0.0
  9
$UCSORGLEFT
 10
0.0
 20
0.0
 30
0.0
  9
$UCSORGRIGHT
 10
0.0
 20
0.0
 30
0.0
  9
$UCSORGFRONT
 10
0.0
 20
0.0
 30
0.0
  9
$UCSORGBACK
 10
0.0
 20
0.0
 30
0.0
  9
$PUCSBASE
  2

  9
$PUCSNAME
  2

  9
$PUCSORG
 10
0.0
 20
0.0
 30
0.0
  9
$PUCSXDIR
 10
1.0
 20
0.0
 30
0.0
  9
$PUCSYDIR
 10
0.0
 20
1.0
 30
0.0
  9
$PUCSORTHOREF
  2

  9
$PUCSORTHOVIEW
 70
     0
  9
$PUCSORGTOP
 10
0.0
 20
0.0
 30
0.0
  9
$PUCSORGBOTTOM
 10
0.0
 20
0.0
 30
0.0
  9
$PUCSORGLEFT
 10
0.0
 20
0.0
 30
0.0
  9
$PUCSORGRIGHT
 10
0.0
 20
0.0
 30
0.0
  9
$PUCSORGFRONT
 10
0.0
 20
0.0
 30
0.0
  9
$PUCSORGBACK
 10
0.0
 20
0.0
 30
0.0
  9
$USERI1
 70
     0
  9
$USERI2
 70
     0
  9
$USERI3
 70
     0
  9
$USERI4
 70
     0
  9
$USERI5
 70
     0
  9
$USERR1
 40
0.0
  9
$USERR2
 40
0.0
  9
$USERR3
 40
0.0
  9
$USERR4
 40
0.0
  9
$USERR5
 40
0.0
  9
$WORLDVIEW
 70
     1
  9
$SHADEDGE
 70
     3
  9
$SHADEDIF
 70
    70
  9
$TILEMODE
 70
     1
  9
$MAXACTVP
 70
    64
  9
$PINSBASE
 10
0.0
 20
0.0
 30
0.0
  9
$PLIMCHECK
 70
     0
  9
$PEXTMIN
 10
1.000000000000000E+20
 20
1.000000000000000E+20
 30
1.000000000000000E+20
  9
$PEXTMAX
 10
-1.000000000000000E+20
 20
-1.000000000000000E+20
 30
-1.000000000000000E+20
  9
$PLIMMIN
 10
0.0
 20
0.0
  9
$PLIMMAX
 10
12.0
 20
9.0
  9
$UNITMODE
 70
     0
  9
$VISRETAIN
 70
     1
  9
$PLINEGEN
 70
     0
  9
$PSLTSCALE
 70
     1
  9
$TREEDEPTH
 70
  3020
  9
$CMLSTYLE
  2
Standard
  9
$CMLJUST
 70
     0
  9
$CMLSCALE
 40
1.0
  9
$PROXYGRAPHICS
 70
     1
  9
$MEASUREMENT
 70
     0
  9
$CELWEIGHT
370
    -1
  9
$ENDCAPS
280
     0
  9
$JOINSTYLE
280
     0
  9
$LWDISPLAY
290
     1
  9
$INSUNITS
 70
     1
  9
$HYPERLINKBASE
  1

  9
$STYLESHEET
  1

  9
$XEDIT
290
     1
  9
$CEPSNTYPE
380
     0
  9
$PSTYLEMODE
290
     1
  9
$FINGERPRINTGUID
  2
{617F7B17-E5F1-DB58-93AE-6B48EA6FF709}
  9
$VERSIONGUID
  2
{FAEB1C32-E019-11D5-929B-00C0DF256EC4}
  9
$EXTNAMES
290
     1
  9
$PSVPSCALE
 40
0.0
  9
$OLESTARTUP
290
     0
  0
ENDSEC
  0
SECTION
  2
CLASSES
  0
CLASS
  1
ACDBDICTIONARYWDFLT
  2
AcDbDictionaryWithDefault
  3
ObjectDBX Classes
 90
        0
280
     0
281
     0
  0
CLASS
  1
VISUALSTYLE
  2
AcDbVisualStyle
  3
ObjectDBX Classes
 90
     4095
280
     0
281
     0
  0
CLASS
  1
ACDBPLACEHOLDER
  2
AcDbPlaceHolder
  3
ObjectDBX Classes
 90
        0
280
     0
281
     0
  0
CLASS
  1
LAYOUT
  2
AcDbLayout
  3
ObjectDBX Classes
 90
        0
280
     0
281
     0
  0
ENDSEC
  0
SECTION
  2
TABLES
  0
TABLE
  2
VPORT
  5
8
330
0
100
AcDbSymbolTable
 70
     1
  0
VPORT
  5
29
330
8
100
AcDbSymbolTableRecord
100
AcDbViewportTableRecord
  2
*Active
 70
     0
 10
0.0
 20
0.0
 11
1.0
 21
1.0
 12
0.0
 22
0.0
 13
0.0
 23
0.0
 14
0.5
 24
0.5
 15
0.5
 25
0.5
 16
0.0
 26
0.0
 36
1.0
 17
594.4992850618787
 27
420.5005173373662
 37
0.0
 40
841.0010346747324
 41
1.413789663866011
 42
50.0
 43
0.0
 44
0.0
 50
0.0
 51
0.0
 71
     0
 72
   100
 73
     1
 74
     3
 75
     0
 76
     0
 77
     0
 78
     0
281
     0
 65
     1
110
0.0
120
0.0
130
0.0
111
1.0
121
0.0
131
0.0
112
0.0
122
1.0
132
0.0
 79
     0
146
0.0
  0
ENDTAB
  0
TABLE
  2
LTYPE
  5
5
330
0
100
AcDbSymbolTable
 70
     1
  0
LTYPE
  5
14
330
5
100
AcDbSymbolTableRecord
100
AcDbLinetypeTableRecord
  2
ByBlock
 70
     0
  3

 72
    65
 73
     0
 40
0.0
  0
LTYPE
  5
15
330
5
100
AcDbSymbolTableRecord
100
AcDbLinetypeTableRecord
  2
ByLayer
 70
     0
  3

 72
    65
 73
     0
 40
0.0
  0
LTYPE
  5
16
330
5
100
AcDbSymbolTableRecord
100
AcDbLinetypeTableRecord
  2
Continuous
 70
     0
  3
Solid line
 72
    65
 73
     0
 40
0.0
  0
ENDTAB
  0
TABLE
  2
LAYER
  5
2
330
0
100
AcDbSymbolTable
 70
     2
  0
LAYER
  5
10
330
2
100
AcDbSymbolTableRecord
100
AcDbLayerTableRecord
  2
0
 70
     0
 62
     7
  6
Continuous
370
    -3
390
F
  0
LAYER
  5
3B
330
2
100
AcDbSymbolTableRecord
100
AcDbLayerTableRecord
  2
Layer 1
 70
     0
 62
     7
  6
Continuous
370
    -3
390
F
  0
ENDTAB
  0
TABLE
  2
STYLE
  5
3
330
0
100
AcDbSymbolTable
 70
     1
  0
STYLE
  5
11
330
3
100
AcDbSymbolTableRecord
100
AcDbTextStyleTableRecord
  2
Standard
 70
     0
 40
0.0
 41
1.0
 50
0.0
 71
     0
 42
0.2
  3
txt
  4

  0
ENDTAB
  0
TABLE
  2
VIEW
  5
6
330
0
100
AcDbSymbolTable
 70
     0
  0
ENDTAB
  0
TABLE
  2
UCS
  5
7
330
0
100
AcDbSymbolTable
 70
     0
  0
ENDTAB
  0
TABLE
  2
APPID
  5
9
330
0
100
AcDbSymbolTable
 70
     1
  0
APPID
  5
12
330
9
100
AcDbSymbolTableRecord
100
AcDbRegAppTableRecord
  2
ACAD
 70
     0
  0
ENDTAB
  0
TABLE
  2
DIMSTYLE
  5
A
330
0
100
AcDbSymbolTable
 70
     1
100
AcDbDimStyleTable
  0
DIMSTYLE
105
27
330
A
100
AcDbSymbolTableRecord
100
AcDbDimStyleTableRecord
  2
Standard
 70
     0
340
11
  0
ENDTAB
  0
TABLE
  2
BLOCK_RECORD
  5
1
330
0
100
AcDbSymbolTable
 70
     1
  0
BLOCK_RECORD
  5
1F
330
1
100
AcDbSymbolTableRecord
100
AcDbBlockTableRecord
  2
*Model_Space
340
22
  0
BLOCK_RECORD
  5
1B
330
1
100
AcDbSymbolTableRecord
100
AcDbBlockTableRecord
  2
*Paper_Space
340
1E
  0
BLOCK_RECORD
  5
23
330
1
100
AcDbSymbolTableRecord
100
AcDbBlockTableRecord
  2
*Paper_Space0
340
26
  0
ENDTAB
  0
ENDSEC
  0
SECTION
  2
BLOCKS
  0
BLOCK
  5
20
330
1F
100
AcDbEntity
  8
0
100
AcDbBlockBegin
  2
*Model_Space
 70
     0
 71
     0
 10
0.0
 20
0.0
 30
0.0
  3
*Model_Space
  1

  0
ENDBLK
  5
21
330
1F
100
AcDbEntity
  8
0
100
AcDbBlockEnd
  0
BLOCK
  5
1C
330
1B
100
AcDbEntity
 67
     1
  8
0
100
AcDbBlockBegin
  2
*Paper_Space
 70
     0
 71
     0
 10
0.0
 20
0.0
 30
0.0
  3
*Paper_Space
  1

  0
ENDBLK
  5
1D
330
1B
100
AcDbEntity
 67
     1
  8
0
100
AcDbBlockEnd
  0
BLOCK
  5
24
330
23
100
AcDbEntity
  8
0
100
AcDbBlockBegin
  2
*Paper_Space0
 70
     0
 71
     0
 10
0.0
 20
0.0
 30
0.0
  3
*Paper_Space0
  1

  0
ENDBLK
  5
25
330
23
100
AcDbEntity
  8
0
100
AcDbBlockEnd
  0
ENDSEC
  0
SECTION
  2
ENTITIES
  0
POLYLINE
  5
3C
330
1F
100
AcDbEntity
  8
Layer 1
 62
     7
370
    25
100
AcDb2dPolyline
 66
     1
 10
0.0
 20
0.0
 30
0.0
  0
VERTEX
  5
3D
330
3C
100
AcDbEntity
  8
Layer 1
 62
     7
370
    25
100
AcDbVertex
100
AcDb2dVertex
 10
584.744669450168
 20
483.3603324529446
 30
0.0
  0
VERTEX
  5
3E
330
3C
100
AcDbEntity
  8
Layer 1
 62
     7
370
    25
100
AcDbVertex
100
AcDb2dVertex
 10
584.7339896541638
 20
483.5050264633252
 30
0.0
  0
VERTEX
  5
3F
330
3C
100
AcDbEntity
  8
Layer 1
 62
     7
370
    25
100
AcDbVertex
100
AcDb2dVertex
 10
584.7022947756994
 20
483.6478256711887
 30
0.0
  0
VERTEX
  5
40
330
3C
100
AcDbEntity
  8
Layer 1
 62
     7
370
    25
100
AcDbVertex
100
AcDb2dVertex
 10
584.6511351077435
 20
483.7837346880819
 30
0.0
  0
VERTEX
  5
41
330
3C
100
AcDbEntity
  8
Layer 1
 62
     7
370
    25
100
AcDbVertex
100
AcDb2dVertex
 10
584.5787881025533
 20
483.9124090044559
 30
0.0
  0
VERTEX
  5
42
330
3C
100
AcDbEntity
  8
Layer 1
 62
     7
370
    25
100
AcDbVertex
100
AcDb2dVertex
 10
584.4905936581308
 20
484.0271306841148
 30
0.0
  0
VERTEX
  5
43
330
3C
100
AcDbEntity
  8
Layer 1
 62
     7
370
    25
100
AcDbVertex
100
AcDb2dVertex
 10
584.3848292267337
 20
484.1294500200267
 30
0.0
  0
VERTEX
  5
44
330
3C
100
AcDbEntity
  8
Layer 1
 62
     7
370
    25
100
AcDbVertex
100
AcDb2dVertex
 10
584.2664901968153
 20
484.2140271141895
 30
0.0
  0
VERTEX
  5
45
330
3C
100
AcDbEntity
  8
Layer 1
 62
     7
370
    25
100
AcDbVertex
100
AcDb2dVertex
 10
584.1360933326987
 20
484.2810342213777
 30
0.0
  0
VERTEX
  5
46
330
3C
100
AcDbEntity
  8
Layer 1
 62
     7
370
    25
100
AcDbVertex
100
AcDb2dVertex
 10
583.998461768063
 20
484.3270262461058
 30
0.0
  0
VERTEX
  5
47
330
3C
100
AcDbEntity
  8
Layer 1
 62
     7
370
    25
100
AcDbVertex
100
AcDb2dVertex
 10
583.8537677576824
 20
484.3533812265679
 30
0.0
  0
VERTEX
  5
48
330
3C
100
AcDbEntity
  8
Layer 1
 62
     7
370
    25
100
AcDbVertex
100
AcDb2dVertex
 10
583.7092460020762
 20
484.3587211245701
 30
0.0
  0
VERTEX
  5
49
330
3C
100
AcDbEntity
  8
Layer 1
 62
     7
370
    25
100
AcDbVertex
100
AcDb2dVertex
 10
583.5628294439531
 20
484.3428736853379
 30
0.0
  0
VERTEX
  5
4A
330
3C
100
AcDbEntity
  8
Layer 1
 62
     7
370
    25
100
AcDbVertex
100
AcDb2dVertex
 10
583.4217527838321
 20
484.3058389088715
 30
0.0
  0
VERTEX
  5
4B
330
3C
100
AcDbEntity
  8
Layer 1
 62
     7
370
    25
100
AcDbVertex
100
AcDb2dVertex
 10
583.2875663146816
 20
484.2493393429134
 30
0.0
  0
VERTEX
  5
4C
330
3C
100
AcDbEntity
  8
Layer 1
 62
     7
370
    25
100
AcDbVertex
100
AcDb2dVertex
 10
583.1640596415353
 20
484.1735472422379
 30
0.0
  0
VERTEX
  5
4D
330
3C
100
AcDbEntity
  8
Layer 1
 62
     7
370
    25
100
AcDbVertex
100
AcDb2dVertex
 10
583.0512327643935
 20
484.0800128998134
 30
0.0
  0
VERTEX
  5
4E
330
3C
100
AcDbEntity
  8
Layer 1
 62
     7
370
    25
100
AcDbVertex
100
AcDb2dVertex
 10
582.9542533264837
 20
483.9706311181567
 30
0.0
  0
VERTEX
  5
4F
330
3C
100
AcDbEntity
  8
Layer 1
 62
     7
370
    25
100
AcDbVertex
100
AcDb2dVertex
 10
582.8731213278061
 20
483.8488469927531
 30
0.0
  0
VERTEX
  5
50
330
3C
100
AcDbEntity
  8
Layer 1
 62
     7
370
    25
100
AcDbVertex
100
AcDb2dVertex
 10
582.8112818638458
 20
483.7165553261195
 30
0.0
  0
VERTEX
  5
51
330
3C
100
AcDbEntity
  8
Layer 1
 62
     7
370
    25
100
AcDbVertex
100
AcDb2dVertex
 10
582.7690794441515
 20
483.5773734685154
 30
0.0
  0
VERTEX
  5
52
330
3C
100
AcDbEntity
  8
Layer 1
 62
     7
370
    25
100
AcDbVertex
100
AcDb2dVertex
 10
582.7478921069172
 20
483.4326794581349
 30
0.0
  0
VERTEX
  5
53
330
3C
100
AcDbEntity
  8
Layer 1
 62
     7
370
    25
100
AcDbVertex
100
AcDb2dVertex
 10
582.7478921069172
 20
483.2862629000118
 30
0.0
  0
VERTEX
  5
54
330
3C
100
AcDbEntity
  8
Layer 1
 62
     7
370
    25
100
AcDbVertex
100
AcDb2dVertex
 10
582.7690794441515
 20
483.1432914373739
 30
0.0
  0
VERTEX
  5
55
330
3C
100
AcDbEntity
  8
Layer 1
 62
     7
370
    25
100
AcDbVertex
100
AcDb2dVertex
 10
582.8112818638458
 20
483.002214777253
 30
0.0
  0
VERTEX
  5
56
330
3C
100
AcDbEntity
  8
Layer 1
 62
     7
370
    25
100
AcDbVertex
100
AcDb2dVertex
 10
582.8731213278061
 20
482.8699231106194
 30
0.0
  0
VERTEX
  5
57
330
3C
100
AcDbEntity
  8
Layer 1
 62
     7
370
    25
100
AcDbVertex
100
AcDb2dVertex
 10
582.9542533264837
 20
482.74831123999
 30
0.0
  0
VERTEX
  5
58
330
3C
100
AcDbEntity
  8
Layer 1
 62
     7
370
    25
100
AcDbVertex
100
AcDb2dVertex
 10
583.0512327643935
 20
482.640652006076
 30
0.0
  0
VERTEX
  5
59
330
3C
100
AcDbEntity
  8
Layer 1
 62
     7
370
    25
100
AcDbVertex
100
AcDb2dVertex
 10
583.1640596415353
 20
482.5471176636514
 30
0.0
  0
VERTEX
  5
5A
330
3C
100
AcDbEntity
  8
Layer 1
 62
     7
370
    25
100
AcDbVertex
100
AcDb2dVertex
 10
583.2875663146816
 20
482.4713255629759
 30
0.0
  0
VERTEX
  5
5B
330
3C
100
AcDbEntity
  8
Layer 1
 62
     7
370
    25
100
AcDbVertex
100
AcDb2dVertex
 10
583.4217527838321
 20
482.4131034492752
 30
0.0
  0
VERTEX
  5
5C
330
3C
100
AcDbEntity
  8
Layer 1
 62
     7
370
    25
100
AcDbVertex
100
AcDb2dVertex
 10
583.5628294439531
 20
482.3760686728088
 30
0.0
  0
VERTEX
  5
5D
330
3C
100
AcDbEntity
  8
Layer 1
 62
     7
370
    25
100
AcDbVertex
100
AcDb2dVertex
 10
583.7092460020762
 20
482.3602212335766
 30
0.0
  0
VERTEX
  5
5E
330
3C
100
AcDbEntity
  8
Layer 1
 62
     7
370
    25
100
AcDbVertex
100
AcDb2dVertex
 10
583.8537677576824
 20
482.3655611315788
 30
0.0
  0
VERTEX
  5
5F
330
3C
100
AcDbEntity
  8
Layer 1
 62
     7
370
    25
100
AcDbVertex
100
AcDb2dVertex
 10
583.998461768063
 20
482.3919161120409
 30
0.0
  0
VERTEX
  5
60
330
3C
100
AcDbEntity
  8
Layer 1
 62
     7
370
    25
100
AcDbVertex
100
AcDb2dVertex
 10
584.1360933326987
 20
482.4396306845117
 30
0.0
  0
VERTEX
  5
61
330
3C
100
AcDbEntity
  8
Layer 1
 62
     7
370
    25
100
AcDbVertex
100
AcDb2dVertex
 10
584.2664901968153
 20
482.5066377916997
 30
0.0
  0
VERTEX
  5
62
330
3C
100
AcDbEntity
  8
Layer 1
 62
     7
370
    25
100
AcDbVertex
100
AcDb2dVertex
 10
584.3848292267337
 20
482.5912148858627
 30
0.0
  0
VERTEX
  5
63
330
3C
100
AcDbEntity
  8
Layer 1
 62
     7
370
    25
100
AcDbVertex
100
AcDb2dVertex
 10
584.4905936581308
 20
482.691811674032
 30
0.0
  0
VERTEX
  5
64
330
3C
100
AcDbEntity
  8
Layer 1
 62
     7
370
    25
100
AcDbVertex
100
AcDb2dVertex
 10
584.5787881025533
 20
482.8082559014334
 30
0.0
  0
VERTEX
  5
65
330
3C
100
AcDbEntity
  8
Layer 1
 62
     7
370
    25
100
AcDbVertex
100
AcDb2dVertex
 10
584.6511351077435
 20
482.9352076700648
 30
0.0
  0
VERTEX
  5
66
330
3C
100
AcDbEntity
  8
Layer 1
 62
     7
370
    25
100
AcDbVertex
100
AcDb2dVertex
 10
584.7022947756994
 20
483.071116686958
 30
0.0
  0
VERTEX
  5
67
330
3C
100
AcDbEntity
  8
Layer 1
 62
     7
370
    25
100
AcDbVertex
100
AcDb2dVertex
 10
584.7339896541638
 20
483.2139158948215
 30
0.0
  0
VERTEX
  5
68
330
3C
100
AcDbEntity
  8
Layer 1
 62
     7
370
    25
100
AcDbVertex
100
AcDb2dVertex
 10
584.744669450168
 20
483.3603324529446
 30
0.0
  0
SEQEND
  5
69
330
3C
100
AcDbEntity
  8
Layer 1
370
    25
  0
POLYLINE
  5
6A
330
1F
100
AcDbEntity
  8
Layer 1
 62
     7
370
    25
100
AcDb2dPolyline
 66
     1
 10
0.0
 20
0.0
 30
0.0
  0
VERTEX
  5
6B
330
6A
100
AcDbEntity
  8
Layer 1
 62
     7
370
    25
100
AcDbVertex
100
AcDb2dVertex
 10
586.2456975530914
 20
491.3594996601462
 30
0.0
  0
VERTEX
  5
6C
330
6A
100
AcDbEntity
  8
Layer 1
 62
     7
370
    25
100
AcDbVertex
100
AcDb2dVertex
 10
585.9458019911004
 20
491.8269991174947
 30
0.0
  0
VERTEX
  5
6D
330
6A
100
AcDbEntity
  8
Layer 1
 62
     7
370
    25
100
AcDbVertex
100
AcDb2dVertex
 10
585.6300589898773
 20
492.2820962310961
 30
0.0
  0
VERTEX
  5
6E
330
6A
100
AcDbEntity
  8
Layer 1
 62
     7
370
    25
100
AcDbVertex
100
AcDb2dVertex
 10
585.298468549422
 20
492.7247910009507
 30
0.0
  0
VERTEX
  5
6F
330
6A
100
AcDbEntity
  8
Layer 1
 62
     7
370
    25
100
AcDbVertex
100
AcDb2dVertex
 10
584.947413319475
 20
493.1552556818327
 30
0.0
  0
VERTEX
  5
70
330
6A
100
AcDbEntity
  8
Layer 1
 62
     7
370
    25
100
AcDbVertex
100
AcDb2dVertex
 10
584.5824054528127
 20
493.5733180189678
 30
0.0
  0
VERTEX
  5
71
330
6A
100
AcDbEntity
  8
Layer 1
 62
     7
370
    25
100
AcDbVertex
100
AcDb2dVertex
 10
584.2013778921441
 20
493.9753606620965
 30
0.0
  0
VERTEX
  5
72
330
6A
100
AcDbEntity
  8
Layer 1
 62
     7
370
    25
100
AcDbVertex
100
AcDb2dVertex
 10
583.806225439986
 20
494.3634506685099
 30
0.0
  0
VERTEX
  5
73
330
6A
100
AcDbEntity
  8
Layer 1
 62
     7
370
    25
100
AcDbVertex
100
AcDb2dVertex
 10
583.3952255485957
 20
494.7356932356911
 30
0.0
  0
VERTEX
  5
74
330
6A
100
AcDbEntity
  8
Layer 1
 62
     7
370
    25
100
AcDbVertex
100
AcDb2dVertex
 10
582.9701007657159
 20
495.0919161088659
 30
0.0
  0
VERTEX
  5
75
330
6A
100
AcDbEntity
  8
Layer 1
 62
     7
370
    25
100
AcDbVertex
100
AcDb2dVertex
 10
582.5327458938634
 20
495.4324637975829
 30
0.0
  0
VERTEX
  5
76
330
6A
100
AcDbEntity
  8
Layer 1
 62
     7
370
    25
100
AcDbVertex
100
AcDb2dVertex
 10
582.0828164234897
 20
495.7569917922934
 30
0.0
  0
VERTEX
  5
77
330
6A
100
AcDbEntity
  8
Layer 1
 62
     7
370
    25
100
AcDbVertex
100
AcDb2dVertex
 10
581.6225516666603
 20
496.0637775452549
 30
0.0
  0
VERTEX
  5
78
330
6A
100
AcDbEntity
  8
Layer 1
 62
     7
370
    25
100
AcDbVertex
100
AcDb2dVertex
 10
581.1479897635672
 20
496.3514430182733
 30
0.0
  0
VERTEX
  5
79
330
6A
100
AcDbEntity
  8
Layer 1
 62
     7
370
    25
100
AcDbVertex
100
AcDb2dVertex
 10
580.6646428669867
 20
496.6230887972852
 30
0.0
  0
VERTEX
  5
7A
330
6A
100
AcDbEntity
  8
Layer 1
 62
     7
370
    25
100
AcDbVertex
100
AcDb2dVertex
 10
580.1707884291761
 20
496.8752697868055
 30
0.0
  0
VERTEX
  5
7B
330
6A
100
AcDbEntity
  8
Layer 1
 62
     7
370
    25
100
AcDbVertex
100
AcDb2dVertex
 10
579.6681489978781
 20
497.1081582416084
 30
0.0
  0
VERTEX
  5
7C
330
6A
100
AcDbEntity
  8
Layer 1
 62
     7
370
    25
100
AcDbVertex
100
AcDb2dVertex
 10
579.1584471208354
 20
497.3233044546623
 30
0.0
  0
VERTEX
  5
7D
330
6A
100
AcDbEntity
  8
Layer 1
 62
     7
370
    25
100
AcDbVertex
100
AcDb2dVertex
 10
578.6380654477884
 20
497.5172633304818
 30
0.0
  0
VERTEX
  5
7E
330
6A
100
AcDbEntity
  8
Layer 1
 62
     7
370
    25
100
AcDbVertex
100
AcDb2dVertex
 10
578.1123438767393
 20
497.6936522193266
 30
0.0
  0
VERTEX
  5
7F
330
6A
100
AcDbEntity
  8
Layer 1
 62
     7
370
    25
100
AcDbVertex
100
AcDb2dVertex
 10
577.5797321147197
 20
497.8471312231945
 30
0.0
  0
VERTEX
  5
80
330
6A
100
AcDbEntity
  8
Layer 1
 62
     7
370
    25
100
AcDbVertex
100
AcDb2dVertex
 10
577.0435030024405
 20
497.9830402400876
 30
0.0
  0
VERTEX
  5
81
330
6A
100
AcDbEntity
  8
Layer 1
 62
     7
370
    25
100
AcDbVertex
100
AcDb2dVertex
 10
576.5002114444167
 20
498.0975896649721
 30
0.0
  0
VERTEX
  5
82
330
6A
100
AcDbEntity
  8
Layer 1
 62
     7
370
    25
100
AcDbVertex
100
AcDb2dVertex
 10
575.9533025361333
 20
498.1911240073967
 30
0.0
  0
VERTEX
  5
83
330
6A
100
AcDbEntity
  8
Layer 1
 62
     7
370
    25
100
AcDbVertex
100
AcDb2dVertex
 10
575.4048433348814
 20
498.2634710125869
 30
0.0
  0
VERTEX
  5
84
330
6A
100
AcDbEntity
  8
Layer 1
 62
     7
370
    25
100
AcDbVertex
100
AcDb2dVertex
 10
574.8527667833702
 20
498.3163532282855
 30
0.0
  0
VERTEX
  5
85
330
6A
100
AcDbEntity
  8
Layer 1
 62
     7
370
    25
100
AcDbVertex
100
AcDb2dVertex
 10
574.298795429342
 20
498.3480481067498
 30
0.0
  0
VERTEX
  5
86
330
6A
100
AcDbEntity
  8
Layer 1
 62
     7
370
    25
100
AcDbVertex
100
AcDb2dVertex
 10
573.744996330088
 20
498.3587279027541
 30
0.0
  0
VERTEX
  5
87
330
6A
100
AcDbEntity
  8
Layer 1
 62
     7
370
    25
100
AcDbVertex
100
AcDb2dVertex
 10
573.1911972308342
 20
498.3480481067498
 30
0.0
  0
VERTEX
  5
88
330
6A
100
AcDbEntity
  8
Layer 1
 62
     7
370
    25
100
AcDbVertex
100
AcDb2dVertex
 10
572.637225876806
 20
498.3163532282855
 30
0.0
  0
VERTEX
  5
89
330
6A
100
AcDbEntity
  8
Layer 1
 62
     7
370
    25
100
AcDbVertex
100
AcDb2dVertex
 10
572.0851493252948
 20
498.2634710125869
 30
0.0
  0
VERTEX
  5
8A
330
6A
100
AcDbEntity
  8
Layer 1
 62
     7
370
    25
100
AcDbVertex
100
AcDb2dVertex
 10
571.5365178692687
 20
498.1911240073967
 30
0.0
  0
VERTEX
  5
8B
330
6A
100
AcDbEntity
  8
Layer 1
 62
     7
370
    25
100
AcDbVertex
100
AcDb2dVertex
 10
570.9897812157595
 20
498.0975896649721
 30
0.0
  0
VERTEX
  5
8C
330
6A
100
AcDbEntity
  8
Layer 1
 62
     7
370
    25
100
AcDbVertex
100
AcDb2dVertex
 10
570.4482122054783
 20
497.9830402400876
 30
0.0
  0
VERTEX
  5
8D
330
6A
100
AcDbEntity
  8
Layer 1
 62
     7
370
    25
100
AcDbVertex
100
AcDb2dVertex
 10
569.9102605454565
 20
497.8471312231945
 30
0.0
  0
VERTEX
  5
8E
330
6A
100
AcDbEntity
  8
Layer 1
 62
     7
370
    25
100
AcDbVertex
100
AcDb2dVertex
 10
569.3776487834368
 20
497.6936522193266
 30
0.0
  0
VERTEX
  5
8F
330
6A
100
AcDbEntity
  8
Layer 1
 62
     7
370
    25
100
AcDbVertex
100
AcDb2dVertex
 10
568.8519272123877
 20
497.5172633304818
 30
0.0
  0
VERTEX
  5
90
330
6A
100
AcDbEntity
  8
Layer 1
 62
     7
370
    25
100
AcDbVertex
100
AcDb2dVertex
 10
568.3334403418577
 20
497.3233044546623
 30
0.0
  0
VERTEX
  5
91
330
6A
100
AcDbEntity
  8
Layer 1
 62
     7
370
    25
100
AcDbVertex
100
AcDb2dVertex
 10
567.8218436622981
 20
497.1081582416084
 30
0.0
  0
VERTEX
  5
92
330
6A
100
AcDbEntity
  8
Layer 1
 62
     7
370
    25
100
AcDbVertex
100
AcDb2dVertex
 10
567.3192042310001
 20
496.8752697868055
 30
0.0
  0
VERTEX
  5
93
330
6A
100
AcDbEntity
  8
Layer 1
 62
     7
370
    25
100
AcDbVertex
100
AcDb2dVertex
 10
566.8251775384152
 20
496.6230887972852
 30
0.0
  0
VERTEX
  5
94
330
6A
100
AcDbEntity
  8
Layer 1
 62
     7
370
    25
100
AcDbVertex
100
AcDb2dVertex
 10
566.342002896609
 20
496.3514430182733
 30
0.0
  0
VERTEX
  5
95
330
6A
100
AcDbEntity
  8
Layer 1
 62
     7
370
    25
100
AcDbVertex
100
AcDb2dVertex
 10
565.8691635412584
 20
496.0637775452549
 30
0.0
  0
VERTEX
  5
96
330
6A
100
AcDbEntity
  8
Layer 1
 62
     7
370
    25
100
AcDbVertex
100
AcDb2dVertex
 10
565.4070039819121
 20
495.7569917922934
 30
0.0
  0
VERTEX
  5
97
330
6A
100
AcDbEntity
  8
Layer 1
 62
     7
370
    25
100
AcDbVertex
100
AcDb2dVertex
 10
564.9572467663128
 20
495.4324637975829
 30
0.0
  0
VERTEX
  5
98
330
6A
100
AcDbEntity
  8
Layer 1
 62
     7
370
    25
100
AcDbVertex
100
AcDb2dVertex
 10
564.5198918944603
 20
495.0919161088659
 30
0.0
  0
VERTEX
  5
99
330
6A
100
AcDbEntity
  8
Layer 1
 62
     7
370
    25
100
AcDbVertex
100
AcDb2dVertex
 10
564.0947671115805
 20
494.7356932356911
 30
0.0
  0
VERTEX
  5
9A
330
6A
100
AcDbEntity
  8
Layer 1
 62
     7
370
    25
100
AcDbVertex
100
AcDb2dVertex
 10
563.6854897679328
 20
494.3634506685099
 30
0.0
  0
VERTEX
  5
9B
330
6A
100
AcDbEntity
  8
Layer 1
 62
     7
370
    25
100
AcDbVertex
100
AcDb2dVertex
 10
563.2886147680321
 20
493.9753606620965
 30
0.0
  0
VERTEX
  5
9C
330
6A
100
AcDbEntity
  8
Layer 1
 62
     7
370
    25
100
AcDbVertex
100
AcDb2dVertex
 10
562.9075872073635
 20
493.5733180189678
 30
0.0
  0
VERTEX
  5
9D
330
6A
100
AcDbEntity
  8
Layer 1
 62
     7
370
    25
100
AcDbVertex
100
AcDb2dVertex
 10
562.5425793407012
 20
493.1552556818327
 30
0.0
  0
VERTEX
  5
9E
330
6A
100
AcDbEntity
  8
Layer 1
 62
     7
370
    25
100
AcDbVertex
100
AcDb2dVertex
 10
562.1932466584968
 20
492.7247910009507
 30
0.0
  0
VERTEX
  5
9F
330
6A
100
AcDbEntity
  8
Layer 1
 62
     7
370
    25
100
AcDbVertex
100
AcDb2dVertex
 10
561.8599336702989
 20
492.2820962310961
 30
0.0
  0
VERTEX
  5
A0
330
6A
100
AcDbEntity
  8
Layer 1
 62
     7
370
    25
100
AcDbVertex
100
AcDb2dVertex
 10
561.5441906690758
 20
491.8269991174947
 30
0.0
  0
VERTEX
  5
A1
330
6A
100
AcDbEntity
  8
Layer 1
 62
     7
370
    25
100
AcDbVertex
100
AcDb2dVertex
 10
561.2460176548274
 20
491.3594996601462
 30
0.0
  0
SEQEND
  5
A2
330
6A
100
AcDbEntity
  8
Layer 1
370
    25
  0
POLYLINE
  5
A3
330
1F
100
AcDbEntity
  8
Layer 1
 62
     7
370
    25
100
AcDb2dPolyline
 66
     1
 10
0.0
 20
0.0
 30
0.0
  0
VERTEX
  5
A4
330
A3
100
AcDbEntity
  8
Layer 1
 62
     7
370
    25
100
AcDbVertex
100
AcDb2dVertex
 10
561.2460176548274
 20
491.3594996601462
 30
0.0
  0
VERTEX
  5
A5
330
A3
100
AcDbEntity
  8
Layer 1
 62
     7
370
    25
100
AcDbVertex
100
AcDb2dVertex
 10
561.2460176548274
 20
481.3601100142086
 30
0.0
  0
SEQEND
  5
A6
330
A3
100
AcDbEntity
  8
Layer 1
370
    25
  0
POLYLINE
  5
A7
330
1F
100
AcDbEntity
  8
Layer 1
 62
     7
370
    25
100
AcDb2dPolyline
 66
     1
 10
0.0
 20
0.0
 30
0.0
  0
VERTEX
  5
A8
330
A7
100
AcDbEntity
  8
Layer 1
 62
     7
370
    25
100
AcDbVertex
100
AcDb2dVertex
 10
561.2460176548274
 20
481.3601100142086
 30
0.0
  0
VERTEX
  5
A9
330
A7
100
AcDbEntity
  8
Layer 1
 62
     7
370
    25
100
AcDbVertex
100
AcDb2dVertex
 10
586.2456975530914
 20
481.3601100142086
 30
0.0
  0
SEQEND
  5
AA
330
A7
100
AcDbEntity
  8
Layer 1
370
    25
  0
POLYLINE
  5
AB
330
1F
100
AcDbEntity
  8
Layer 1
 62
     7
370
    25
100
AcDb2dPolyline
 66
     1
 10
0.0
 20
0.0
 30
0.0
  0
VERTEX
  5
AC
330
AB
100
AcDbEntity
  8
Layer 1
 62
     7
370
    25
100
AcDbVertex
100
AcDb2dVertex
 10
586.2456975530914
 20
481.3601100142086
 30
0.0
  0
VERTEX
  5
AD
330
AB
100
AcDbEntity
  8
Layer 1
 62
     7
370
    25
100
AcDbVertex
100
AcDb2dVertex
 10
586.2456975530914
 20
491.3594996601462
 30
0.0
  0
SEQEND
  5
AE
330
AB
100
AcDbEntity
  8
Layer 1
370
    25
  0
POLYLINE
  5
AF
330
1F
100
AcDbEntity
  8
Layer 1
 62
     7
370
    25
100
AcDb2dPolyline
 66
     1
 10
0.0
 20
0.0
 30
0.0
  0
VERTEX
  5
B0
330
AF
100
AcDbEntity
  8
Layer 1
 62
     7
370
    25
100
AcDbVertex
100
AcDb2dVertex
 10
564.7455456487442
 20
483.3603324529446
 30
0.0
  0
VERTEX
  5
B1
330
AF
100
AcDbEntity
  8
Layer 1
 62
     7
370
    25
100
AcDbVertex
100
AcDb2dVertex
 10
564.7350381075141
 20
483.5050264633252
 30
0.0
  0
VERTEX
  5
B2
330
AF
100
AcDbEntity
  8
Layer 1
 62
     7
370
    25
100
AcDbVertex
100
AcDb2dVertex
 10
564.7033432290499
 20
483.6478256711887
 30
0.0
  0
VERTEX
  5
B3
330
AF
100
AcDbEntity
  8
Layer 1
 62
     7
370
    25
100
AcDbVertex
100
AcDb2dVertex
 10
564.6504610133513
 20
483.7837346880819
 30
0.0
  0
VERTEX
  5
B4
330
AF
100
AcDbEntity
  8
Layer 1
 62
     7
370
    25
100
AcDbVertex
100
AcDb2dVertex
 10
564.5798365559036
 20
483.9124090044559
 30
0.0
  0
VERTEX
  5
B5
330
AF
100
AcDbEntity
  8
Layer 1
 62
     7
370
    25
100
AcDbVertex
100
AcDb2dVertex
 10
564.4899195637387
 20
484.0271306841148
 30
0.0
  0
VERTEX
  5
B6
330
AF
100
AcDbEntity
  8
Layer 1
 62
     7
370
    25
100
AcDbVertex
100
AcDb2dVertex
 10
564.3858776800841
 20
484.1294500200267
 30
0.0
  0
VERTEX
  5
B7
330
AF
100
AcDbEntity
  8
Layer 1
 62
     7
370
    25
100
AcDbVertex
100
AcDb2dVertex
 10
564.2658161024232
 20
484.2140271141895
 30
0.0
  0
VERTEX
  5
B8
330
AF
100
AcDbEntity
  8
Layer 1
 62
     7
370
    25
100
AcDbVertex
100
AcDb2dVertex
 10
564.137141786049
 20
484.2810342213777
 30
0.0
  0
VERTEX
  5
B9
330
AF
100
AcDbEntity
  8
Layer 1
 62
     7
370
    25
100
AcDbVertex
100
AcDb2dVertex
 10
563.9977876736707
 20
484.3270262461058
 30
0.0
  0
VERTEX
  5
BA
330
AF
100
AcDbEntity
  8
Layer 1
 62
     7
370
    25
100
AcDbVertex
100
AcDb2dVertex
 10
563.8548162110328
 20
484.3533812265679
 30
0.0
  0
VERTEX
  5
BB
330
AF
100
AcDbEntity
  8
Layer 1
 62
     7
370
    25
100
AcDbVertex
100
AcDb2dVertex
 10
563.7083996529097
 20
484.3587211245701
 30
0.0
  0
VERTEX
  5
BC
330
AF
100
AcDbEntity
  8
Layer 1
 62
     7
370
    25
100
AcDbVertex
100
AcDb2dVertex
 10
563.5638778973035
 20
484.3428736853379
 30
0.0
  0
VERTEX
  5
BD
330
AF
100
AcDbEntity
  8
Layer 1
 62
     7
370
    25
100
AcDbVertex
100
AcDb2dVertex
 10
563.4226289824082
 20
484.3058389088715
 30
0.0
  0
VERTEX
  5
BE
330
AF
100
AcDbEntity
  8
Layer 1
 62
     7
370
    25
100
AcDbVertex
100
AcDb2dVertex
 10
563.2886147680321
 20
484.2493393429134
 30
0.0
  0
VERTEX
  5
BF
330
AF
100
AcDbEntity
  8
Layer 1
 62
     7
370
    25
100
AcDbVertex
100
AcDb2dVertex
 10
563.1633855471432
 20
484.1735472422379
 30
0.0
  0
VERTEX
  5
C0
330
AF
100
AcDbEntity
  8
Layer 1
 62
     7
370
    25
100
AcDbVertex
100
AcDb2dVertex
 10
563.0505586700012
 20
484.0800128998134
 30
0.0
  0
VERTEX
  5
C1
330
AF
100
AcDbEntity
  8
Layer 1
 62
     7
370
    25
100
AcDbVertex
100
AcDb2dVertex
 10
562.9535792320914
 20
483.9706311181567
 30
0.0
  0
VERTEX
  5
C2
330
AF
100
AcDbEntity
  8
Layer 1
 62
     7
370
    25
100
AcDbVertex
100
AcDb2dVertex
 10
562.8724472334138
 20
483.8488469927531
 30
0.0
  0
VERTEX
  5
C3
330
AF
100
AcDbEntity
  8
Layer 1
 62
     7
370
    25
100
AcDbVertex
100
AcDb2dVertex
 10
562.8106077694537
 20
483.7165553261195
 30
0.0
  0
VERTEX
  5
C4
330
AF
100
AcDbEntity
  8
Layer 1
 62
     7
370
    25
100
AcDbVertex
100
AcDb2dVertex
 10
562.770127897502
 20
483.5773734685154
 30
0.0
  0
VERTEX
  5
C5
330
AF
100
AcDbEntity
  8
Layer 1
 62
     7
370
    25
100
AcDbVertex
100
AcDb2dVertex
 10
562.7470457577508
 20
483.4326794581349
 30
0.0
  0
VERTEX
  5
C6
330
AF
100
AcDbEntity
  8
Layer 1
 62
     7
370
    25
100
AcDbVertex
100
AcDb2dVertex
 10
562.7470457577508
 20
483.2862629000118
 30
0.0
  0
VERTEX
  5
C7
330
AF
100
AcDbEntity
  8
Layer 1
 62
     7
370
    25
100
AcDbVertex
100
AcDb2dVertex
 10
562.770127897502
 20
483.1432914373739
 30
0.0
  0
VERTEX
  5
C8
330
AF
100
AcDbEntity
  8
Layer 1
 62
     7
370
    25
100
AcDbVertex
100
AcDb2dVertex
 10
562.8106077694537
 20
483.002214777253
 30
0.0
  0
VERTEX
  5
C9
330
AF
100
AcDbEntity
  8
Layer 1
 62
     7
370
    25
100
AcDbVertex
100
AcDb2dVertex
 10
562.8724472334138
 20
482.8699231106194
 30
0.0
  0
VERTEX
  5
CA
330
AF
100
AcDbEntity
  8
Layer 1
 62
     7
370
    25
100
AcDbVertex
100
AcDb2dVertex
 10
562.9535792320914
 20
482.74831123999
 30
0.0
  0
VERTEX
  5
CB
330
AF
100
AcDbEntity
  8
Layer 1
 62
     7
370
    25
100
AcDbVertex
100
AcDb2dVertex
 10
563.0505586700012
 20
482.640652006076
 30
0.0
  0
VERTEX
  5
CC
330
AF
100
AcDbEntity
  8
Layer 1
 62
     7
370
    25
100
AcDbVertex
100
AcDb2dVertex
 10
563.1633855471432
 20
482.5471176636514
 30
0.0
  0
VERTEX
  5
CD
330
AF
100
AcDbEntity
  8
Layer 1
 62
     7
370
    25
100
AcDbVertex
100
AcDb2dVertex
 10
563.2886147680321
 20
482.4713255629759
 30
0.0
  0
VERTEX
  5
CE
330
AF
100
AcDbEntity
  8
Layer 1
 62
     7
370
    25
100
AcDbVertex
100
AcDb2dVertex
 10
563.4226289824082
 20
482.4131034492752
 30
0.0
  0
VERTEX
  5
CF
330
AF
100
AcDbEntity
  8
Layer 1
 62
     7
370
    25
100
AcDbVertex
100
AcDb2dVertex
 10
563.5638778973035
 20
482.3760686728088
 30
0.0
  0
VERTEX
  5
D0
330
AF
100
AcDbEntity
  8
Layer 1
 62
     7
370
    25
100
AcDbVertex
100
AcDb2dVertex
 10
563.7083996529097
 20
482.3602212335766
 30
0.0
  0
VERTEX
  5
D1
330
AF
100
AcDbEntity
  8
Layer 1
 62
     7
370
    25
100
AcDbVertex
100
AcDb2dVertex
 10
563.8548162110328
 20
482.3655611315788
 30
0.0
  0
VERTEX
  5
D2
330
AF
100
AcDbEntity
  8
Layer 1
 62
     7
370
    25
100
AcDbVertex
100
AcDb2dVertex
 10
563.9977876736707
 20
482.3919161120409
 30
0.0
  0
VERTEX
  5
D3
330
AF
100
AcDbEntity
  8
Layer 1
 62
     7
370
    25
100
AcDbVertex
100
AcDb2dVertex
 10
564.137141786049
 20
482.4396306845117
 30
0.0
  0
VERTEX
  5
D4
330
AF
100
AcDbEntity
  8
Layer 1
 62
     7
370
    25
100
AcDbVertex
100
AcDb2dVertex
 10
564.2658161024232
 20
482.5066377916997
 30
0.0
  0
VERTEX
  5
D5
330
AF
100
AcDbEntity
  8
Layer 1
 62
     7
370
    25
100
AcDbVertex
100
AcDb2dVertex
 10
564.3858776800841
 20
482.5912148858627
 30
0.0
  0
VERTEX
  5
D6
330
AF
100
AcDbEntity
  8
Layer 1
 62
     7
370
    25
100
AcDbVertex
100
AcDb2dVertex
 10
564.4899195637387
 20
482.691811674032
 30
0.0
  0
VERTEX
  5
D7
330
AF
100
AcDbEntity
  8
Layer 1
 62
     7
370
    25
100
AcDbVertex
100
AcDb2dVertex
 10
564.5798365559036
 20
482.8082559014334
 30
0.0
  0
VERTEX
  5
D8
330
AF
100
AcDbEntity
  8
Layer 1
 62
     7
370
    25
100
AcDbVertex
100
AcDb2dVertex
 10
564.6504610133513
 20
482.9352076700648
 30
0.0
  0
VERTEX
  5
D9
330
AF
100
AcDbEntity
  8
Layer 1
 62
     7
370
    25
100
AcDbVertex
100
AcDb2dVertex
 10
564.7033432290499
 20
483.071116686958
 30
0.0
  0
VERTEX
  5
DA
330
AF
100
AcDbEntity
  8
Layer 1
 62
     7
370
    25
100
AcDbVertex
100
AcDb2dVertex
 10
564.7350381075141
 20
483.2139158948215
 30
0.0
  0
VERTEX
  5
DB
330
AF
100
AcDbEntity
  8
Layer 1
 62
     7
370
    25
100
AcDbVertex
100
AcDb2dVertex
 10
564.7455456487442
 20
483.3603324529446
 30
0.0
  0
SEQEND
  5
DC
330
AF
100
AcDbEntity
  8
Layer 1
370
    25
  0
POLYLINE
  5
DD
330
1F
100
AcDbEntity
  8
Layer 1
 62
     7
370
    25
100
AcDb2dPolyline
 66
     1
 10
0.0
 20
0.0
 30
0.0
  0
VERTEX
  5
DE
330
DD
100
AcDbEntity
  8
Layer 1
 62
     7
370
    25
100
AcDbVertex
100
AcDb2dVertex
 10
567.2449624232929
 20
495.3601167923927
 30
0.0
  0
VERTEX
  5
DF
330
DD
100
AcDbEntity
  8
Layer 1
 62
     7
370
    25
100
AcDbVertex
100
AcDb2dVertex
 10
567.2449624232929
 20
484.3604436723127
 30
0.0
  0
SEQEND
  5
E0
330
DD
100
AcDbEntity
  8
Layer 1
370
    25
  0
POLYLINE
  5
E1
330
1F
100
AcDbEntity
  8
Layer 1
 62
     7
370
    25
100
AcDb2dPolyline
 66
     1
 10
0.0
 20
0.0
 30
0.0
  0
VERTEX
  5
E2
330
E1
100
AcDbEntity
  8
Layer 1
 62
     7
370
    25
100
AcDbVertex
100
AcDb2dVertex
 10
580.2448579821089
 20
495.3601167923927
 30
0.0
  0
VERTEX
  5
E3
330
E1
100
AcDbEntity
  8
Layer 1
 62
     7
370
    25
100
AcDbVertex
100
AcDb2dVertex
 10
567.2449624232929
 20
495.3601167923927
 30
0.0
  0
SEQEND
  5
E4
330
E1
100
AcDbEntity
  8
Layer 1
370
    25
  0
POLYLINE
  5
E5
330
1F
100
AcDbEntity
  8
Layer 1
 62
     7
370
    25
100
AcDb2dPolyline
 66
     1
 10
0.0
 20
0.0
 30
0.0
  0
VERTEX
  5
E6
330
E5
100
AcDbEntity
  8
Layer 1
 62
     7
370
    25
100
AcDbVertex
100
AcDb2dVertex
 10
580.2448579821089
 20
484.3604436723127
 30
0.0
  0
VERTEX
  5
E7
330
E5
100
AcDbEntity
  8
Layer 1
 62
     7
370
    25
100
AcDbVertex
100
AcDb2dVertex
 10
580.2448579821089
 20
495.3601167923927
 30
0.0
  0
SEQEND
  5
E8
330
E5
100
AcDbEntity
  8
Layer 1
370
    25
  0
POLYLINE
  5
E9
330
1F
100
AcDbEntity
  8
Layer 1
 62
     7
370
    25
100
AcDb2dPolyline
 66
     1
 10
0.0
 20
0.0
 30
0.0
  0
VERTEX
  5
EA
330
E9
100
AcDbEntity
  8
Layer 1
 62
     7
370
    25
100
AcDbVertex
100
AcDb2dVertex
 10
567.2449624232929
 20
484.3604436723127
 30
0.0
  0
VERTEX
  5
EB
330
E9
100
AcDbEntity
  8
Layer 1
 62
     7
370
    25
100
AcDbVertex
100
AcDb2dVertex
 10
580.2448579821089
 20
484.3604436723127
 30
0.0
  0
SEQEND
  5
EC
330
E9
100
AcDbEntity
  8
Layer 1
370
    25
  0
ENDSEC
  0
SECTION
  2
OBJECTS
  0
DICTIONARY
  5
C
330
0
100
AcDbDictionary
281
     1
  3
ACAD_GROUP
350
D
  3
ACAD_LAYOUT
350
1A
  3
ACAD_MLINESTYLE
350
17
  3
ACAD_PLOTSETTINGS
350
19
  3
ACAD_PLOTSTYLENAME
350
E
  3
ACAD_TABLESTYLE
350
ED
  3
ACAD_VISUALSTYLE
350
2A
  0
DICTIONARY
  5
D
102
{ACAD_REACTORS
330
C
102
}
330
C
100
AcDbDictionary
281
     1
  0
DICTIONARY
  5
1A
102
{ACAD_REACTORS
330
C
102
}
330
C
100
AcDbDictionary
281
     1
  3
Layout1
350
1E
  3
Layout2
350
26
  3
Model
350
22
  0
DICTIONARY
  5
17
102
{ACAD_REACTORS
330
C
102
}
330
C
100
AcDbDictionary
281
     1
  3
Standard
350
18
  0
DICTIONARY
  5
19
102
{ACAD_REACTORS
330
C
102
}
330
C
100
AcDbDictionary
281
     1
  0
ACDBDICTIONARYWDFLT
  5
E
102
{ACAD_REACTORS
330
C
102
}
330
C
100
AcDbDictionary
281
     1
  3
Normal
350
F
100
AcDbDictionaryWithDefault
340
F
  0
DICTIONARY
  5
ED
102
{ACAD_REACTORS
330
C
102
}
330
C
100
AcDbDictionary
281
     1
  0
DICTIONARY
  5
2A
102
{ACAD_REACTORS
330
C
102
}
330
C
100
AcDbDictionary
281
     1
  3
2dWireframe
350
2F
  3
3D Hidden
350
31
  3
3dWireframe
350
30
  3
Basic
350
32
  3
Brighten
350
36
  3
ColorChange
350
3A
  3
Conceptual
350
34
  3
Dim
350
35
  3
Facepattern
350
39
  3
Flat
350
2B
  3
FlatWithEdges
350
2C
  3
Gouraud
350
2D
  3
GouraudWithEdges
350
2E
  3
Linepattern
350
38
  3
Realistic
350
33
  3
Thicken
350
37
  0
LAYOUT
  5
1E
102
{ACAD_REACTORS
330
1A
102
}
330
1A
100
AcDbPlotSettings
  1

  2
none_device
  4

  6

 40
0.0
 41
0.0
 42
0.0
 43
0.0
 44
0.0
 45
0.0
 46
0.0
 47
0.0
 48
0.0
 49
0.0
140
0.0
141
0.0
142
1.0
143
1.0
 70
   688
 72
     0
 73
     0
 74
     5
  7

 75
    16
147
1.0
148
0.0
149
0.0
100
AcDbLayout
  1
Layout1
 70
     1
 71
     1
 10
0.0
 20
0.0
 11
12.0
 21
9.0
 12
0.0
 22
0.0
 32
0.0
 14
1.000000000000000E+20
 24
1.000000000000000E+20
 34
1.000000000000000E+20
 15
-1.000000000000000E+20
 25
-1.000000000000000E+20
 35
-1.000000000000000E+20
146
0.0
 13
0.0
 23
0.0
 33
0.0
 16
1.0
 26
0.0
 36
0.0
 17
0.0
 27
1.0
 37
0.0
 76
     0
330
1B
  0
LAYOUT
  5
26
102
{ACAD_REACTORS
330
1A
102
}
330
1A
100
AcDbPlotSettings
  1

  2
none_device
  4

  6

 40
0.0
 41
0.0
 42
0.0
 43
0.0
 44
0.0
 45
0.0
 46
0.0
 47
0.0
 48
0.0
 49
0.0
140
0.0
141
0.0
142
1.0
143
1.0
 70
   688
 72
     0
 73
     0
 74
     5
  7

 75
    16
147
1.0
148
0.0
149
0.0
100
AcDbLayout
  1
Layout2
 70
     1
 71
     2
 10
0.0
 20
0.0
 11
0.0
 21
0.0
 12
0.0
 22
0.0
 32
0.0
 14
0.0
 24
0.0
 34
0.0
 15
0.0
 25
0.0
 35
0.0
146
0.0
 13
0.0
 23
0.0
 33
0.0
 16
1.0
 26
0.0
 36
0.0
 17
0.0
 27
1.0
 37
0.0
 76
     0
330
23
  0
LAYOUT
  5
22
102
{ACAD_REACTORS
330
1A
102
}
330
1A
100
AcDbPlotSettings
  1

  2
none_device
  4

  6

 40
0.0
 41
0.0
 42
0.0
 43
0.0
 44
0.0
 45
0.0
 46
0.0
 47
0.0
 48
0.0
 49
0.0
140
0.0
141
0.0
142
1.0
143
1.0
 70
  1712
 72
     0
 73
     0
 74
     0
  7

 75
     0
147
1.0
148
0.0
149
0.0
100
AcDbLayout
  1
Model
 70
     1
 71
     0
 10
0.0
 20
0.0
 11
12.0
 21
9.0
 12
0.0
 22
0.0
 32
0.0
 14
1.000000000000000E+20
 24
1.000000000000000E+20
 34
1.000000000000000E+20
 15
-1.000000000000000E+20
 25
-1.000000000000000E+20
 35
-1.000000000000000E+20
146
0.0
 13
0.0
 23
0.0
 33
0.0
 16
1.0
 26
0.0
 36
0.0
 17
0.0
 27
1.0
 37
0.0
 76
     0
330
1F
331
29
  0
MLINESTYLE
  5
18
102
{ACAD_REACTORS
330
17
102
}
330
17
100
AcDbMlineStyle
  2
Standard
 70
     0
  3

 62
   256
 51
90.0
 52
90.0
 71
     2
 49
0.5
 62
   256
  6
BYLAYER
 49
-0.5
 62
   256
  6
BYLAYER
  0
ACDBPLACEHOLDER
  5
F
102
{ACAD_REACTORS
330
E
102
}
330
E
  0
VISUALSTYLE
  5
2F
102
{ACAD_REACTORS
330
2A
102
}
330
2A
100
AcDbVisualStyle
  2
2dWireframe
 70
     4
 71
     0
 72
     2
 73
     0
 90
        0
 40
-0.6
 41
-30.0
 62
     5
 63
     7
 74
     1
 91
        4
 64
     7
 65
   257
 75
     1
175
     1
 42
1.0
 92
        0
 66
   257
 43
1.0
 76
     1
 77
     6
 78
     2
 67
     7
 79
     5
170
     0
171
     0
290
     0
174
     0
 93
        1
 44
0.0
173
     0
291
     0
 45
0.0
1001
ACAD
1000
AcDbSavedByObjectVersion
1070
     0
  0
VISUALSTYLE
  5
31
102
{ACAD_REACTORS
330
2A
102
}
330
2A
100
AcDbVisualStyle
  2
3D Hidden
 70
     6
 71
     1
 72
     2
 73
     2
 90
        0
 40
-0.6
 41
-30.0
 62
     5
 63
     7
 74
     2
 91
        2
 64
     7
 65
   257
 75
     2
175
     1
 42
40.0
 92
        0
 66
   257
 43
1.0
 76
     1
 77
     6
 78
     2
 67
     7
 79
     3
170
     0
171
     0
290
     0
174
     0
 93
        1
 44
0.0
173
     0
291
     0
 45
0.0
1001
ACAD
1000
AcDbSavedByObjectVersion
1070
     0
  0
VISUALSTYLE
  5
30
102
{ACAD_REACTORS
330
2A
102
}
330
2A
100
AcDbVisualStyle
  2
3dWireframe
 70
     5
 71
     0
 72
     2
 73
     0
 90
        0
 40
-0.6
 41
-30.0
 62
     5
 63
     7
 74
     1
 91
        4
 64
     7
 65
   257
 75
     1
175
     1
 42
1.0
 92
        0
 66
   257
 43
1.0
 76
     1
 77
     6
 78
     2
 67
     7
 79
     5
170
     0
171
     0
290
     0
174
     0
 93
        1
 44
0.0
173
     0
291
     0
 45
0.0
1001
ACAD
1000
AcDbSavedByObjectVersion
1070
     0
  0
VISUALSTYLE
  5
32
102
{ACAD_REACTORS
330
2A
102
}
330
2A
100
AcDbVisualStyle
  2
Basic
 70
     7
 71
     1
 72
     0
 73
     1
 90
        0
 40
-0.6
 41
-30.0
 62
     5
 63
     7
 74
     0
 91
        4
 64
     7
 65
   257
 75
     1
175
     1
 42
1.0
 92
        8
 66
     7
 43
1.0
 76
     1
 77
     6
 78
     2
 67
     7
 79
     5
170
     0
171
     0
290
     0
174
     0
 93
        1
 44
0.0
173
     0
291
     1
 45
0.0
1001
ACAD
1000
AcDbSavedByObjectVersion
1070
     0
  0
VISUALSTYLE
  5
36
102
{ACAD_REACTORS
330
2A
102
}
330
2A
100
AcDbVisualStyle
  2
Brighten
 70
    12
 71
     2
 72
     2
 73
     0
 90
        0
 40
-0.6
 41
-30.0
 62
     5
 63
     7
 74
     1
 91
        4
 64
     7
 65
   257
 75
     1
175
     1
 42
1.0
 92
        8
 66
     7
 43
1.0
 76
     1
 77
     6
 78
     2
 67
     7
 79
     5
170
     0
171
     0
290
     0
174
     0
 93
        1
 44
50.0
173
     0
291
     1
 45
0.0
1001
ACAD
1000
AcDbSavedByObjectVersion
1070
     0
  0
VISUALSTYLE
  5
3A
102
{ACAD_REACTORS
330
2A
102
}
330
2A
100
AcDbVisualStyle
  2
ColorChange
 70
    16
 71
     2
 72
     2
 73
     3
 90
        0
 40
-0.6
 41
-30.0
 62
     5
 63
     8
 74
     1
 91
        4
 64
     7
 65
   257
 75
     1
175
     1
 42
1.0
 92
        8
 66
     8
 43
1.0
 76
     1
 77
     6
 78
     2
 67
     7
 79
     5
170
     0
171
     0
290
     0
174
     0
 93
        1
 44
0.0
173
     0
291
     1
 45
0.0
1001
ACAD
1000
AcDbSavedByObjectVersion
1070
     0
  0
VISUALSTYLE
  5
34
102
{ACAD_REACTORS
330
2A
102
}
330
2A
100
AcDbVisualStyle
  2
Conceptual
 70
     9
 71
     3
 72
     2
 73
     0
 90
        0
 40
-0.6
 41
-30.0
 62
     5
 63
     7
 74
     2
 91
        2
 64
     7
 65
   257
 75
     1
175
     1
 42
40.0
 92
        8
 66
     7
 43
1.0
 76
     1
 77
     6
 78
     2
 67
     7
 79
     3
170
     0
171
     0
290
     0
174
     0
 93
        1
 44
0.0
173
     0
291
     0
 45
0.0
1001
ACAD
1000
AcDbSavedByObjectVersion
1070
     0
  0
VISUALSTYLE
  5
35
102
{ACAD_REACTORS
330
2A
102
}
330
2A
100
AcDbVisualStyle
  2
Dim
 70
    11
 71
     2
 72
     2
 73
     0
 90
        0
 40
-0.6
 41
-30.0
 62
     5
 63
     7
 74
     1
 91
        4
 64
     7
 65
   257
 75
     1
175
     1
 42
1.0
 92
        8
 66
     7
 43
1.0
 76
     1
 77
     6
 78
     2
 67
     7
 79
     5
170
     0
171
     0
290
     0
174
     0
 93
        1
 44
-50.0
173
     0
291
     1
 45
0.0
1001
ACAD
1000
AcDbSavedByObjectVersion
1070
     0
  0
VISUALSTYLE
  5
39
102
{ACAD_REACTORS
330
2A
102
}
330
2A
100
AcDbVisualStyle
  2
Facepattern
 70
    15
 71
     2
 72
     2
 73
     0
 90
        0
 40
-0.6
 41
-30.0
 62
     5
 63
     7
 74
     1
 91
        4
 64
     7
 65
   257
 75
     1
175
     1
 42
1.0
 92
        8
 66
     7
 43
1.0
 76
     1
 77
     6
 78
     2
 67
     7
 79
     5
170
     0
171
     0
290
     0
174
     0
 93
        1
 44
0.0
173
     0
291
     1
 45
0.0
1001
ACAD
1000
AcDbSavedByObjectVersion
1070
     0
  0
VISUALSTYLE
  5
2B
102
{ACAD_REACTORS
330
2A
102
}
330
2A
100
AcDbVisualStyle
  2
Flat
 70
     0
 71
     2
 72
     1
 73
     1
 90
        2
 40
-0.6
 41
30.0
 62
     5
 63
     7
 74
     0
 91
        4
 64
     7
 65
   257
 75
     1
175
     1
 42
1.0
 92
        8
 66
     7
 43
1.0
 76
     1
 77
     6
 78
     2
 67
     7
 79
     5
170
     0
171
     0
290
     0
174
     0
 93
       13
 44
0.0
173
     0
291
     1
 45
0.0
1001
ACAD
1000
AcDbSavedByObjectVersion
1070
     0
  0
VISUALSTYLE
  5
2C
102
{ACAD_REACTORS
330
2A
102
}
330
2A
100
AcDbVisualStyle
  2
FlatWithEdges
 70
     1
 71
     2
 72
     1
 73
     1
 90
        2
 40
-0.6
 41
30.0
 62
     5
 63
     7
 74
     1
 91
        4
 64
     7
 65
   257
 75
     1
175
     1
 42
1.0
 92
        0
 66
   257
 43
1.0
 76
     1
 77
     6
 78
     2
 67
     7
 79
     5
170
     0
171
     0
290
     0
174
     0
 93
       13
 44
0.0
173
     0
291
     1
 45
0.0
1001
ACAD
1000
AcDbSavedByObjectVersion
1070
     0
  0
VISUALSTYLE
  5
2D
102
{ACAD_REACTORS
330
2A
102
}
330
2A
100
AcDbVisualStyle
  2
Gouraud
 70
     2
 71
     2
 72
     2
 73
     1
 90
        2
 40
-0.6
 41
30.0
 62
     5
 63
     7
 74
     0
 91
        4
 64
     7
 65
   257
 75
     1
175
     1
 42
1.0
 92
        0
 66
     7
 43
1.0
 76
     1
 77
     6
 78
     2
 67
     7
 79
     5
170
     0
171
     0
290
     0
174
     0
 93
       13
 44
0.0
173
     0
291
     1
 45
0.0
1001
ACAD
1000
AcDbSavedByObjectVersion
1070
     0
  0
VISUALSTYLE
  5
2E
102
{ACAD_REACTORS
330
2A
102
}
330
2A
100
AcDbVisualStyle
  2
GouraudWithEdges
 70
     3
 71
     2
 72
     2
 73
     1
 90
        2
 40
-0.6
 41
30.0
 62
     5
 63
     7
 74
     1
 91
        4
 64
     7
 65
   257
 75
     1
175
     1
 42
1.0
 92
        0
 66
   257
 43
1.0
 76
     1
 77
     6
 78
     2
 67
     7
 79
     5
170
     0
171
     0
290
     0
174
     0
 93
       13
 44
0.0
173
     0
291
     1
 45
0.0
1001
ACAD
1000
AcDbSavedByObjectVersion
1070
     0
  0
VISUALSTYLE
  5
38
102
{ACAD_REACTORS
330
2A
102
}
330
2A
100
AcDbVisualStyle
  2
Linepattern
 70
    14
 71
     2
 72
     2
 73
     0
 90
        0
 40
-0.6
 41
-30.0
 62
     5
 63
     7
 74
     1
 91
        4
 64
     7
 65
   257
 75
     7
175
     7
 42
1.0
 92
        8
 66
     7
 43
1.0
 76
     1
 77
     6
 78
     2
 67
     7
 79
     5
170
     0
171
     0
290
     0
174
     0
 93
        1
 44
0.0
173
     0
291
     1
 45
0.0
1001
ACAD
1000
AcDbSavedByObjectVersion
1070
     0
  0
VISUALSTYLE
  5
33
102
{ACAD_REACTORS
330
2A
102
}
330
2A
100
AcDbVisualStyle
  2
Realistic
 70
     8
 71
     2
 72
     2
 73
     0
 90
        0
 40
-0.6
 41
-30.0
 62
     5
 63
     7
 74
     1
 91
        0
 64
     7
 65
   257
 75
     1
175
     1
 42
1.0
 92
        8
 66
     8
 43
1.0
 76
     1
 77
     6
 78
     2
 67
     7
 79
     5
170
     0
171
     0
290
     0
174
     0
 93
       13
 44
0.0
173
     0
291
     0
 45
0.0
1001
ACAD
1000
AcDbSavedByObjectVersion
1070
     0
  0
VISUALSTYLE
  5
37
102
{ACAD_REACTORS
330
2A
102
}
330
2A
100
AcDbVisualStyle
  2
Thicken
 70
    13
 71
     2
 72
     2
 73
     0
 90
        0
 40
-0.6
 41
-30.0
 62
     5
 63
     7
 74
     1
 91
        4
 64
     7
 65
   257
 75
     1
175
     1
 42
1.0
 92
       12
 66
     7
 43
1.0
 76
     1
 77
     6
 78
     2
 67
     7
 79
     5
170
     0
171
     0
290
     0
174
     0
 93
        1
 44
0.0
173
     0
291
     1
 45
0.0
1001
ACAD
1000
AcDbSavedByObjectVersion
1070
     0
  0
ENDSEC
  0
EOF
